<svg xmlns="http://www.w3.org/2000/svg" xmlns:xlink="http://www.w3.org/1999/xlink" version="1.1" width="256" height="256" viewBox="0 0 256 256" xml:space="preserve">

<defs>
</defs>
<g style="stroke: none; stroke-width: 0; stroke-dasharray: none; stroke-linecap: butt; stroke-linejoin: miter; stroke-miterlimit: 10; fill: none; fill-rule: nonzero; opacity: 1;" transform="translate(1.4065934065934016 1.4065934065934016) scale(2.81 2.81)" >
	<circle cx="25.516000000000002" cy="18.946" r="2.466" style="stroke: none; stroke-width: 1; stroke-dasharray: none; stroke-linecap: butt; stroke-linejoin: miter; stroke-miterlimit: 10; fill: rgb(0,0,0); fill-rule: nonzero; opacity: 1;" transform="  matrix(1 0 0 1 0 0) "/>
	<circle cx="25.516000000000002" cy="61.056000000000004" r="2.466" style="stroke: none; stroke-width: 1; stroke-dasharray: none; stroke-linecap: butt; stroke-linejoin: miter; stroke-miterlimit: 10; fill: rgb(0,0,0); fill-rule: nonzero; opacity: 1;" transform="  matrix(1 0 0 1 0 0) "/>
	<circle cx="64.476" cy="61.056000000000004" r="2.466" style="stroke: none; stroke-width: 1; stroke-dasharray: none; stroke-linecap: butt; stroke-linejoin: miter; stroke-miterlimit: 10; fill: rgb(0,0,0); fill-rule: nonzero; opacity: 1;" transform="  matrix(1 0 0 1 0 0) "/>
	<circle cx="64.476" cy="18.946" r="2.466" style="stroke: none; stroke-width: 1; stroke-dasharray: none; stroke-linecap: butt; stroke-linejoin: miter; stroke-miterlimit: 10; fill: rgb(0,0,0); fill-rule: nonzero; opacity: 1;" transform="  matrix(1 0 0 1 0 0) "/>
	<circle cx="17.466" cy="39.996" r="2.466" style="stroke: none; stroke-width: 1; stroke-dasharray: none; stroke-linecap: butt; stroke-linejoin: miter; stroke-miterlimit: 10; fill: rgb(0,0,0); fill-rule: nonzero; opacity: 1;" transform="  matrix(1 0 0 1 0 0) "/>
	<circle cx="72.53599999999999" cy="39.996" r="2.466" style="stroke: none; stroke-width: 1; stroke-dasharray: none; stroke-linecap: butt; stroke-linejoin: miter; stroke-miterlimit: 10; fill: rgb(0,0,0); fill-rule: nonzero; opacity: 1;" transform="  matrix(1 0 0 1 0 0) "/>
	<circle cx="44.996" cy="12.646" r="2.466" style="stroke: none; stroke-width: 1; stroke-dasharray: none; stroke-linecap: butt; stroke-linejoin: miter; stroke-miterlimit: 10; fill: rgb(0,0,0); fill-rule: nonzero; opacity: 1;" transform="  matrix(1 0 0 1 0 0) "/>
	<circle cx="44.996" cy="75.976" r="2.466" style="stroke: none; stroke-width: 1; stroke-dasharray: none; stroke-linecap: butt; stroke-linejoin: miter; stroke-miterlimit: 10; fill: rgb(0,0,0); fill-rule: nonzero; opacity: 1;" transform="  matrix(1 0 0 1 0 0) "/>
	<path d="M 45 23.643 c -9.034 0 -16.357 7.323 -16.357 16.357 S 35.966 56.357 45 56.357 S 61.357 49.034 61.357 40 S 54.034 23.643 45 23.643 z M 45 51.5 c -6.351 0 -11.5 -5.149 -11.5 -11.5 c 0 -6.351 5.149 -11.5 11.5 -11.5 S 56.5 33.649 56.5 40 C 56.5 46.351 51.351 51.5 45 51.5 z" style="stroke: none; stroke-width: 1; stroke-dasharray: none; stroke-linecap: butt; stroke-linejoin: miter; stroke-miterlimit: 10; fill: rgb(0,0,0); fill-rule: nonzero; opacity: 1;" transform=" matrix(1 0 0 1 0 0) " stroke-linecap="round" />
	<path d="M 45 90 c -0.112 0 -0.224 -0.019 -0.331 -0.057 C 23.056 82.377 8.534 61.645 8.534 38.353 V 9.632 c 0 -0.506 0.378 -0.932 0.88 -0.993 c 11.595 -1.402 23.453 -4.288 35.245 -8.58 c 0.221 -0.08 0.463 -0.08 0.684 0 c 11.792 4.291 23.649 7.178 35.245 8.58 c 0.502 0.061 0.88 0.487 0.88 0.993 v 28.72 c 0 23.292 -14.522 44.024 -36.136 51.591 C 45.224 89.981 45.112 90 45 90 z M 10.534 10.516 v 27.836 c 0 22.324 13.836 42.205 34.466 49.587 c 20.631 -7.382 34.467 -27.263 34.467 -49.587 V 10.516 C 68.113 9.072 56.524 6.231 45 2.064 C 33.476 6.231 21.887 9.073 10.534 10.516 z" style="stroke: none; stroke-width: 1; stroke-dasharray: none; stroke-linecap: butt; stroke-linejoin: miter; stroke-miterlimit: 10; fill: rgb(0,0,0); fill-rule: nonzero; opacity: 1;" transform=" matrix(1 0 0 1 0 0) " stroke-linecap="round" />
	<path d="M 45 52.5 c -6.893 0 -12.5 -5.607 -12.5 -12.5 S 38.107 27.5 45 27.5 c 2.387 0 4.707 0.675 6.711 1.953 c 0.466 0.297 0.603 0.915 0.307 1.381 c -0.297 0.465 -0.916 0.603 -1.381 0.306 C 48.954 30.067 47.005 29.5 45 29.5 c -5.79 0 -10.5 4.71 -10.5 10.5 S 39.21 50.5 45 50.5 c 5.79 0 10.5 -4.71 10.5 -10.5 c 0 -2.447 -0.86 -4.829 -2.421 -6.708 c -0.354 -0.425 -0.295 -1.055 0.129 -1.408 c 0.427 -0.354 1.056 -0.294 1.409 0.13 C 56.476 34.251 57.5 37.087 57.5 40 C 57.5 46.893 51.893 52.5 45 52.5 z" style="stroke: none; stroke-width: 1; stroke-dasharray: none; stroke-linecap: butt; stroke-linejoin: miter; stroke-miterlimit: 10; fill: rgb(0,0,0); fill-rule: nonzero; opacity: 1;" transform=" matrix(1 0 0 1 0 0) " stroke-linecap="round" />
	<path d="M 45 57.357 c -9.571 0 -17.357 -7.786 -17.357 -17.357 c 0 -9.571 7.786 -17.357 17.357 -17.357 c 9.571 0 17.357 7.786 17.357 17.357 C 62.357 49.571 54.571 57.357 45 57.357 z M 45 24.643 c -8.468 0 -15.357 6.889 -15.357 15.357 S 36.532 55.357 45 55.357 S 60.357 48.468 60.357 40 S 53.468 24.643 45 24.643 z" style="stroke: none; stroke-width: 1; stroke-dasharray: none; stroke-linecap: butt; stroke-linejoin: miter; stroke-miterlimit: 10; fill: rgb(0,0,0); fill-rule: nonzero; opacity: 1;" transform=" matrix(1 0 0 1 0 0) " stroke-linecap="round" />
	<path d="M 45.567 46.08 c -3.353 0 -6.08 -2.728 -6.08 -6.08 s 2.727 -6.08 6.08 -6.08 c 1.513 0 2.962 0.559 4.082 1.573 c 0.409 0.371 0.44 1.003 0.069 1.413 s -1.005 0.439 -1.413 0.07 c -0.751 -0.681 -1.724 -1.056 -2.738 -1.056 c -2.25 0 -4.08 1.83 -4.08 4.08 s 1.83 4.08 4.08 4.08 c 1.015 0 1.987 -0.375 2.738 -1.056 c 0.409 -0.37 1.042 -0.34 1.413 0.07 c 0.371 0.409 0.34 1.042 -0.069 1.413 C 48.529 45.521 47.08 46.08 45.567 46.08 z" style="stroke: none; stroke-width: 1; stroke-dasharray: none; stroke-linecap: butt; stroke-linejoin: miter; stroke-miterlimit: 10; fill: rgb(0,0,0); fill-rule: nonzero; opacity: 1;" transform=" matrix(1 0 0 1 0 0) " stroke-linecap="round" />
	<path d="M 45.567 35.92 c -0.552 0 -1 -0.448 -1 -1 v -1.948 c 0 -0.552 0.448 -1 1 -1 c 0.553 0 1 0.448 1 1 v 1.948 C 46.567 35.473 46.12 35.92 45.567 35.92 z" style="stroke: none; stroke-width: 1; stroke-dasharray: none; stroke-linecap: butt; stroke-linejoin: miter; stroke-miterlimit: 10; fill: rgb(0,0,0); fill-rule: nonzero; opacity: 1;" transform=" matrix(1 0 0 1 0 0) " stroke-linecap="round" />
	<path d="M 45.567 48.027 c -0.552 0 -1 -0.447 -1 -1 V 45.08 c 0 -0.552 0.448 -1 1 -1 c 0.553 0 1 0.448 1 1 v 1.948 C 46.567 47.58 46.12 48.027 45.567 48.027 z" style="stroke: none; stroke-width: 1; stroke-dasharray: none; stroke-linecap: butt; stroke-linejoin: miter; stroke-miterlimit: 10; fill: rgb(0,0,0); fill-rule: nonzero; opacity: 1;" transform=" matrix(1 0 0 1 0 0) " stroke-linecap="round" />
	<path d="M 36.874 26.785 c -0.382 0 -0.747 -0.221 -0.913 -0.592 l -2.794 -6.247 h -5.181 c -0.552 0 -1 -0.448 -1 -1 s 0.448 -1 1 -1 h 5.829 c 0.395 0 0.752 0.232 0.913 0.592 l 3.059 6.838 c 0.226 0.504 0 1.096 -0.504 1.321 C 37.149 26.757 37.011 26.785 36.874 26.785 z" style="stroke: none; stroke-width: 1; stroke-dasharray: none; stroke-linecap: butt; stroke-linejoin: miter; stroke-miterlimit: 10; fill: rgb(0,0,0); fill-rule: nonzero; opacity: 1;" transform=" matrix(1 0 0 1 0 0) " stroke-linecap="round" />
	<path d="M 53.125 26.785 c -0.136 0 -0.274 -0.028 -0.407 -0.088 c -0.504 -0.226 -0.73 -0.817 -0.505 -1.321 l 3.06 -6.838 c 0.161 -0.36 0.519 -0.592 0.913 -0.592 h 5.829 c 0.553 0 1 0.448 1 1 s -0.447 1 -1 1 h -5.181 l -2.795 6.247 C 53.873 26.564 53.508 26.785 53.125 26.785 z" style="stroke: none; stroke-width: 1; stroke-dasharray: none; stroke-linecap: butt; stroke-linejoin: miter; stroke-miterlimit: 10; fill: rgb(0,0,0); fill-rule: nonzero; opacity: 1;" transform=" matrix(1 0 0 1 0 0) " stroke-linecap="round" />
	<path d="M 33.814 62.054 h -5.829 c -0.552 0 -1 -0.447 -1 -1 s 0.448 -1 1 -1 h 5.181 l 2.794 -6.246 c 0.226 -0.505 0.819 -0.729 1.321 -0.505 c 0.504 0.226 0.73 0.817 0.504 1.321 l -3.059 6.838 C 34.566 61.822 34.209 62.054 33.814 62.054 z" style="stroke: none; stroke-width: 1; stroke-dasharray: none; stroke-linecap: butt; stroke-linejoin: miter; stroke-miterlimit: 10; fill: rgb(0,0,0); fill-rule: nonzero; opacity: 1;" transform=" matrix(1 0 0 1 0 0) " stroke-linecap="round" />
	<path d="M 62.015 62.054 h -5.829 c -0.395 0 -0.752 -0.231 -0.913 -0.592 l -3.06 -6.838 c -0.226 -0.504 0.001 -1.096 0.505 -1.321 c 0.507 -0.224 1.095 0.001 1.321 0.505 l 2.795 6.246 h 5.181 c 0.553 0 1 0.447 1 1 S 62.567 62.054 62.015 62.054 z" style="stroke: none; stroke-width: 1; stroke-dasharray: none; stroke-linecap: butt; stroke-linejoin: miter; stroke-miterlimit: 10; fill: rgb(0,0,0); fill-rule: nonzero; opacity: 1;" transform=" matrix(1 0 0 1 0 0) " stroke-linecap="round" />
	<path d="M 25.52 22.412 c -1.911 0 -3.466 -1.555 -3.466 -3.466 s 1.555 -3.466 3.466 -3.466 s 3.466 1.555 3.466 3.466 S 27.431 22.412 25.52 22.412 z M 25.52 17.48 c -0.808 0 -1.466 0.658 -1.466 1.466 s 0.658 1.466 1.466 1.466 s 1.466 -0.658 1.466 -1.466 S 26.328 17.48 25.52 17.48 z" style="stroke: none; stroke-width: 1; stroke-dasharray: none; stroke-linecap: butt; stroke-linejoin: miter; stroke-miterlimit: 10; fill: rgb(0,0,0); fill-rule: nonzero; opacity: 1;" transform=" matrix(1 0 0 1 0 0) " stroke-linecap="round" />
	<path d="M 25.52 64.52 c -1.911 0 -3.466 -1.555 -3.466 -3.466 s 1.555 -3.466 3.466 -3.466 s 3.466 1.555 3.466 3.466 S 27.431 64.52 25.52 64.52 z M 25.52 59.588 c -0.808 0 -1.466 0.657 -1.466 1.466 s 0.658 1.466 1.466 1.466 s 1.466 -0.657 1.466 -1.466 S 26.328 59.588 25.52 59.588 z" style="stroke: none; stroke-width: 1; stroke-dasharray: none; stroke-linecap: butt; stroke-linejoin: miter; stroke-miterlimit: 10; fill: rgb(0,0,0); fill-rule: nonzero; opacity: 1;" transform=" matrix(1 0 0 1 0 0) " stroke-linecap="round" />
	<path d="M 64.48 64.52 c -1.911 0 -3.466 -1.555 -3.466 -3.466 s 1.555 -3.466 3.466 -3.466 s 3.466 1.555 3.466 3.466 S 66.392 64.52 64.48 64.52 z M 64.48 59.588 c -0.809 0 -1.466 0.657 -1.466 1.466 s 0.657 1.466 1.466 1.466 s 1.466 -0.657 1.466 -1.466 S 65.289 59.588 64.48 59.588 z" style="stroke: none; stroke-width: 1; stroke-dasharray: none; stroke-linecap: butt; stroke-linejoin: miter; stroke-miterlimit: 10; fill: rgb(0,0,0); fill-rule: nonzero; opacity: 1;" transform=" matrix(1 0 0 1 0 0) " stroke-linecap="round" />
	<path d="M 64.48 22.412 c -1.911 0 -3.466 -1.555 -3.466 -3.466 s 1.555 -3.466 3.466 -3.466 s 3.466 1.555 3.466 3.466 S 66.392 22.412 64.48 22.412 z M 64.48 17.48 c -0.809 0 -1.466 0.658 -1.466 1.466 s 0.657 1.466 1.466 1.466 s 1.466 -0.658 1.466 -1.466 S 65.289 17.48 64.48 17.48 z" style="stroke: none; stroke-width: 1; stroke-dasharray: none; stroke-linecap: butt; stroke-linejoin: miter; stroke-miterlimit: 10; fill: rgb(0,0,0); fill-rule: nonzero; opacity: 1;" transform=" matrix(1 0 0 1 0 0) " stroke-linecap="round" />
	<path d="M 28.643 41 h -8.711 c -0.552 0 -1 -0.448 -1 -1 s 0.448 -1 1 -1 h 8.711 c 0.552 0 1 0.448 1 1 S 29.195 41 28.643 41 z" style="stroke: none; stroke-width: 1; stroke-dasharray: none; stroke-linecap: butt; stroke-linejoin: miter; stroke-miterlimit: 10; fill: rgb(0,0,0); fill-rule: nonzero; opacity: 1;" transform=" matrix(1 0 0 1 0 0) " stroke-linecap="round" />
	<path d="M 17.466 43.466 C 15.555 43.466 14 41.911 14 40 s 1.555 -3.466 3.466 -3.466 s 3.466 1.555 3.466 3.466 S 19.377 43.466 17.466 43.466 z M 17.466 38.534 C 16.658 38.534 16 39.192 16 40 s 0.658 1.466 1.466 1.466 s 1.466 -0.658 1.466 -1.466 S 18.274 38.534 17.466 38.534 z" style="stroke: none; stroke-width: 1; stroke-dasharray: none; stroke-linecap: butt; stroke-linejoin: miter; stroke-miterlimit: 10; fill: rgb(0,0,0); fill-rule: nonzero; opacity: 1;" transform=" matrix(1 0 0 1 0 0) " stroke-linecap="round" />
	<path d="M 70.068 41 h -8.711 c -0.553 0 -1 -0.448 -1 -1 s 0.447 -1 1 -1 h 8.711 c 0.553 0 1 0.448 1 1 S 70.621 41 70.068 41 z" style="stroke: none; stroke-width: 1; stroke-dasharray: none; stroke-linecap: butt; stroke-linejoin: miter; stroke-miterlimit: 10; fill: rgb(0,0,0); fill-rule: nonzero; opacity: 1;" transform=" matrix(1 0 0 1 0 0) " stroke-linecap="round" />
	<path d="M 72.534 43.466 c -1.911 0 -3.466 -1.555 -3.466 -3.466 s 1.555 -3.466 3.466 -3.466 S 76 38.089 76 40 S 74.445 43.466 72.534 43.466 z M 72.534 38.534 c -0.809 0 -1.466 0.658 -1.466 1.466 s 0.657 1.466 1.466 1.466 S 74 40.808 74 40 S 73.343 38.534 72.534 38.534 z" style="stroke: none; stroke-width: 1; stroke-dasharray: none; stroke-linecap: butt; stroke-linejoin: miter; stroke-miterlimit: 10; fill: rgb(0,0,0); fill-rule: nonzero; opacity: 1;" transform=" matrix(1 0 0 1 0 0) " stroke-linecap="round" />
	<path d="M 45 74.506 c -0.552 0 -1 -0.447 -1 -1 V 56.357 c 0 -0.553 0.448 -1 1 -1 s 1 0.447 1 1 v 17.148 C 46 74.059 45.552 74.506 45 74.506 z" style="stroke: none; stroke-width: 1; stroke-dasharray: none; stroke-linecap: butt; stroke-linejoin: miter; stroke-miterlimit: 10; fill: rgb(0,0,0); fill-rule: nonzero; opacity: 1;" transform=" matrix(1 0 0 1 0 0) " stroke-linecap="round" />
	<path d="M 45 24.643 c -0.552 0 -1 -0.448 -1 -1 V 15.11 c 0 -0.552 0.448 -1 1 -1 s 1 0.448 1 1 v 8.533 C 46 24.195 45.552 24.643 45 24.643 z" style="stroke: none; stroke-width: 1; stroke-dasharray: none; stroke-linecap: butt; stroke-linejoin: miter; stroke-miterlimit: 10; fill: rgb(0,0,0); fill-rule: nonzero; opacity: 1;" transform=" matrix(1 0 0 1 0 0) " stroke-linecap="round" />
	<path d="M 45 16.11 c -1.911 0 -3.466 -1.555 -3.466 -3.466 S 43.089 9.178 45 9.178 s 3.466 1.555 3.466 3.466 S 46.911 16.11 45 16.11 z M 45 11.178 c -0.808 0 -1.466 0.658 -1.466 1.466 S 44.192 14.11 45 14.11 s 1.466 -0.658 1.466 -1.466 S 45.808 11.178 45 11.178 z" style="stroke: none; stroke-width: 1; stroke-dasharray: none; stroke-linecap: butt; stroke-linejoin: miter; stroke-miterlimit: 10; fill: rgb(0,0,0); fill-rule: nonzero; opacity: 1;" transform=" matrix(1 0 0 1 0 0) " stroke-linecap="round" />
	<path d="M 45 79.438 c -1.911 0 -3.466 -1.555 -3.466 -3.466 s 1.555 -3.466 3.466 -3.466 s 3.466 1.555 3.466 3.466 S 46.911 79.438 45 79.438 z M 45 74.506 c -0.808 0 -1.466 0.657 -1.466 1.466 s 0.658 1.466 1.466 1.466 s 1.466 -0.657 1.466 -1.466 S 45.808 74.506 45 74.506 z" style="stroke: none; stroke-width: 1; stroke-dasharray: none; stroke-linecap: butt; stroke-linejoin: miter; stroke-miterlimit: 10; fill: rgb(0,0,0); fill-rule: nonzero; opacity: 1;" transform=" matrix(1 0 0 1 0 0) " stroke-linecap="round" />
</g>
</svg>